# xmcd CD database file
#
# Track frame offsets:
#	150
#	18587
#	29707
#	50660
#	64290
#	83867
#	101037
#	116905
#	138900
#	161507
#
# Disc length: 2434 seconds
#
# Revision: 1
# Processed by: cddbd v1.5.2PL0 Copyright (c) Steve Scherf et al.
# Submitted via: CDex 1.70beta2
#
DISCID=8f09800a
DTITLE=Sabbrabells - Sailing On The Revenge
DYEAR=1900
DGENRE=Heavy Metal
TTITLE0=Devil's Rondo
TTITLE1=Hawk Emblem
TTITLE2=破壊
TTITLE3=Dead Point
TTITLE4=Running My Way
TTITLE5=Moon Struck
TTITLE6=Diamond City
TTITLE7=鏡張りの部屋
TTITLE8=Your Song
TTITLE9=Sailing On The Revenge
EXTD=
EXTT0=
EXTT1=
EXTT2=
EXTT3=
EXTT4=
EXTT5=
EXTT6=
EXTT7=
EXTT8=
EXTT9=
PLAYORDER=
